<svg xmlns="http://www.w3.org/2000/svg" width="390" height="844" viewBox="0 0 390 844" font-family="Arial, sans-serif"><rect x="0" y="0" width="390" height="844" rx="26" fill="#F7F8FC"/><text x="24" y="28" font-size="12" fill="#172039" font-weight="700">9:41</text><text x="302" y="28" font-size="11" fill="#172039" font-weight="400">▰  ▰  ▰</text><g data-action="home" role="button" tabindex="0" aria-label="Voltar ao início" style="cursor:pointer"><text x="24" y="83" font-size="26" fill="#172039" font-weight="400">←</text></g><text x="66" y="83" font-size="22" fill="#172039" font-weight="800">PETR4</text><g data-action="favorite" role="button" tabindex="0" aria-label="Alternar favorita" style="cursor:pointer"><text x="338" y="83" font-size="26" fill="#996300" font-weight="400">★</text></g><text x="24" y="119" font-size="13" fill="#64748B" font-weight="400">Petróleo Brasileiro S.A. — Petrobras</text><text x="24" y="170" font-size="34" fill="#172039" font-weight="800">R$ 38,50</text><rect x="247" y="142" width="111" height="30" rx="10" fill="#E7F7EF"/><text x="262" y="162" font-size="14" fill="#087F4B" font-weight="700">+1,24%</text><rect x="24" y="198" width="342" height="292" rx="20" fill="#fff"/><text x="42" y="228" font-size="15" fill="#172039" font-weight="700">Histórico de preço</text><g data-action="range:5d" role="button" tabindex="0" aria-label="5 dias" style="cursor:pointer"><rect x="40" y="246" width="73" height="34" rx="10" fill="#F7F8FC"/><text x="48" y="267" font-size="12" fill="#64748B" font-weight="600">5 dias</text></g><g data-action="range:1mo" role="button" tabindex="0" aria-label="1 mês" style="cursor:pointer"><rect x="120" y="246" width="73" height="34" rx="10" fill="#F7F8FC"/><text x="128" y="267" font-size="12" fill="#64748B" font-weight="600">1 mês</text></g><g data-action="range:3mo" role="button" tabindex="0" aria-label="3 meses" style="cursor:pointer"><rect x="200" y="246" width="73" height="34" rx="10" fill="#EEECFF"/><text x="208" y="267" font-size="12" fill="#6558F5" font-weight="600">3 meses</text></g><g data-action="range:1y" role="button" tabindex="0" aria-label="1 ano" style="cursor:pointer"><rect x="280" y="246" width="73" height="34" rx="10" fill="#F7F8FC"/><text x="288" y="267" font-size="12" fill="#64748B" font-weight="600">1 ano</text></g><path d="M42 320H348" stroke="#EBEEF5"/><path d="M42 362H348" stroke="#EBEEF5"/><path d="M42 404H348" stroke="#EBEEF5"/><path d="M42 446H348" stroke="#EBEEF5"/><path d="M42 422L63 405L84 414L105 382L126 392L147 359L168 373L189 345L210 356L231 320L252 334L273 309L294 322L315 303L348 298L348 448H42Z" fill="#E7F7EF"/><path d="M42 422L63 405L84 414L105 382L126 392L147 359L168 373L189 345L210 356L231 320L252 334L273 309L294 322L315 303L348 298" stroke="#14B86E" stroke-width="3" fill="none"/><text x="42" y="472" font-size="11" fill="#64748B" font-weight="400">01/07</text><text x="167" y="472" font-size="11" fill="#64748B" font-weight="400">15/08</text><text x="305" y="472" font-size="11" fill="#64748B" font-weight="400">30/09</text><rect x="24" y="504" width="342" height="65" rx="20" fill="#fff"/><text x="43" y="527" font-size="11" fill="#64748B" font-weight="400">Moeda</text><text x="43" y="552" font-size="15" fill="#172039" font-weight="700">BRL</text><text x="181" y="527" font-size="11" fill="#64748B" font-weight="400">Valor de mercado</text><text x="181" y="552" font-size="15" fill="#172039" font-weight="700">R$ 502,1 bi</text><rect x="24" y="585" width="342" height="226" rx="20" fill="#fff"/><text x="42" y="615" font-size="18" fill="#172039" font-weight="800">Compra simulada</text><text x="42" y="639" font-size="12" fill="#64748B" font-weight="400">Adicione ao preço atual.</text><g data-action="quantity" role="button" tabindex="0" aria-label="Alterar quantidade" style="cursor:pointer"><rect x="42" y="655" width="133" height="53" rx="12" fill="#F7F8FC"/><text x="54" y="675" font-size="10" fill="#64748B" font-weight="400">Quantidade</text><text x="54" y="696" font-size="16" fill="#172039" font-weight="700">10</text></g><rect x="187" y="655" width="161" height="53" rx="12" fill="#EEECFF"/><text x="200" y="675" font-size="10" fill="#64748B" font-weight="400">Cotação: R$ 38,50</text><text x="200" y="696" font-size="15" fill="#172039" font-weight="700">Total: R$ 385,00</text><g data-action="buy" role="button" tabindex="0" aria-label="Comprar agora" style="cursor:pointer"><rect x="42" y="724" width="306" height="45" rx="14" fill="#6558F5"/><text x="117" y="753" font-size="15" fill="#fff" font-weight="700">Comprar agora</text></g><text x="42" y="792" font-size="11" fill="#64748B" font-weight="400">Simulação educacional • sem ordem real.</text><rect x="145" y="834" width="100" height="4" rx="2" fill="#172039"/></svg>