<svg xmlns="http://www.w3.org/2000/svg" width="390" height="844" viewBox="0 0 390 844" font-family="Arial, sans-serif"><rect x="0" y="0" width="390" height="844" rx="26" fill="#F7F8FC"/><text x="24" y="28" font-size="12" fill="#172039" font-weight="700">9:41</text><text x="302" y="28" font-size="11" fill="#172039" font-weight="400">▰  ▰  ▰</text><rect x="24" y="134" width="342" height="540" rx="20" fill="#fff"/><rect x="159" y="170" width="72" height="72" rx="18" fill="#6558F5"/><text x="177" y="217" font-size="38" fill="#fff" font-weight="700">↗</text><text x="103" y="285" font-size="28" fill="#172039" font-weight="800">Bolsa Fácil</text><text x="54" y="314" font-size="14" fill="#64748B" font-weight="400">Entre para acessar seus investimentos</text><rect x="24" y="353" width="342" height="64" rx="14" fill="#fff"/><text x="40" y="375" font-size="11" fill="#64748B" font-weight="400">E-mail</text><text x="40" y="398" font-size="15" fill="#172039" font-weight="400">ana@exemplo.com</text><rect x="24" y="432" width="342" height="64" rx="14" fill="#fff"/><text x="40" y="454" font-size="11" fill="#64748B" font-weight="400">Senha</text><text x="40" y="477" font-size="15" fill="#172039" font-weight="400">••••••••</text><g data-action="home" role="button" tabindex="0" aria-label="Entrar" style="cursor:pointer"><rect x="24" y="527" width="342" height="50" rx="16" fill="#6558F5"/><text x="45" y="558" font-size="15" fill="#fff" font-weight="700">Entrar</text></g><g data-action="register" role="button" tabindex="0" aria-label="Ainda não tenho uma conta" style="cursor:pointer"><rect x="24" y="592" width="342" height="50" rx="16" fill="#EEECFF"/><text x="45" y="623" font-size="15" fill="#6558F5" font-weight="700">Ainda não tenho uma conta</text></g><rect x="145" y="834" width="100" height="4" rx="2" fill="#172039"/></svg>